# xmcd CD database file
#
# Track frame offsets:
#	183
#	32058
#	56663
#	89658
#	124308
#	183483
#	215808
#	274758
#
# Disc length: 4155 seconds
#
# Revision: 0
# Processed by: cddbd v1.5.1PL0 Copyright (c) Steve Scherf et al.
# Submitted via: CDex 1.51
#
DISCID=7d103908
DTITLE=String Trio Of New York - Octagon
DYEAR=1994
DGENRE=Jazz
TTITLE0=The Pursuit Of Happiness
TTITLE1=One For Robin
TTITLE2=Strings And Things
TTITLE3=Circular Views
TTITLE4=Upside The Downside
TTITLE5=Forever February
TTITLE6=Billie: The Queen Of Holiday
TTITLE7=A Short History Of The Balkans
EXTD=YEAR: 1994
EXTT0=
EXTT1=
EXTT2=
EXTT3=
EXTT4=
EXTT5=
EXTT6=
EXTT7=
PLAYORDER=
